<svg width="14" height="17" viewBox="0 0 14 17" fill="none" xmlns="http://www.w3.org/2000/svg">
<path d="M11.7188 4.29716V3.3125H12.6562V2.375H11.7188V0.5H2.28125V2.375H1.34375V3.3125H2.28125V4.29716C1.21275 4.51494 0.40625 5.46191 0.40625 6.59375V14.1562C0.40625 14.7856 0.752219 15.3895 1.38047 15.8566C1.92225 16.2595 2.60944 16.5 3.21875 16.5H11.25C12.5423 16.5 13.5938 15.4486 13.5938 14.1562V6.59375C13.5938 5.46191 12.7873 4.51494 11.7188 4.29716ZM3.21875 1.4375H10.7812V2.375H3.21875V1.4375ZM10.7812 3.3125V4.25H3.21875V3.3125H10.7812ZM11.25 15.5625H3.21875C2.40006 15.5625 1.34375 14.8806 1.34375 14.1562C1.73575 14.4499 2.22278 14.625 2.75 14.625H11.25C11.7772 14.625 12.2642 14.4499 12.6562 14.155C12.6562 14.9317 12.0254 15.5625 11.25 15.5625ZM11.25 13.6875H2.75C1.97459 13.6875 1.34375 13.0567 1.34375 12.2812V6.59375C1.34375 5.81834 1.97459 5.1875 2.75 5.1875H11.25C12.0254 5.1875 12.6562 5.81834 12.6562 6.59375V12.2812C12.6562 13.0567 12.0254 13.6875 11.25 13.6875Z" fill="white"/>
</svg>
