<svg width="20" height="17" viewBox="0 0 20 17" fill="none" xmlns="http://www.w3.org/2000/svg">
<g clip-path="url(#clip0)">
<path d="M19.8399 14.5951C19.8123 14.4088 19.6956 14.2478 19.5272 14.1635L14.9025 11.8512V7.88212C14.9025 5.17477 12.7121 2.97958 9.99996 2.97958H9.341V2.32062C9.341 1.32104 8.52777 0.507812 7.52819 0.507812C6.52862 0.507812 5.71535 1.321 5.71535 2.32062V2.97958H5.05639C2.34854 2.97958 0.153809 5.17012 0.153809 7.88212V12.2078C0.153809 12.5264 0.412116 12.7847 0.730732 12.7847H7.392C8.0845 13.1309 11.5753 14.8762 13.4657 15.8216C14.3434 16.2604 15.326 16.4924 16.3074 16.4924C17.5743 16.4924 18.7654 15.9989 19.6614 15.103L19.6657 15.0987C19.8024 14.9693 19.8675 14.7813 19.8399 14.5951ZM6.95123 11.6308H1.30765V10.3129H3.20254C3.52115 10.3129 3.77946 10.0546 3.77946 9.73596C3.77946 9.41735 3.52115 9.15904 3.20254 9.15904H1.30765V7.88212C1.30765 5.81147 2.98262 4.13343 5.05639 4.13343H6.95127V11.6308H6.95123ZM6.86919 2.97958V2.32062C6.86919 1.95727 7.16481 1.66166 7.52815 1.66166C7.8915 1.66166 8.18712 1.95727 8.18712 2.32062V2.97958H6.86919ZM8.10508 4.13343H9.99996C12.0704 4.13343 13.7487 5.80835 13.7487 7.88212V11.6308H8.10508V4.13343ZM16.3074 15.3385C15.5043 15.3385 14.7 15.1487 13.9818 14.7896C12.8956 14.2464 11.2809 13.439 9.97215 12.7847H14.1894L18.2093 14.7947C17.6445 15.1489 16.9905 15.3385 16.3074 15.3385Z" fill="white"/>
</g>
<defs>
<clipPath id="clip0">
<rect width="19.6923" height="16" fill="white" transform="translate(0.153809 0.5)"/>
</clipPath>
</defs>
</svg>
