<svg width="16" height="17" viewBox="0 0 16 17" fill="none" xmlns="http://www.w3.org/2000/svg">
<g clip-path="url(#clip0)">
<path d="M8 0.5C3.589 0.5 0 4.089 0 8.5C0 12.911 3.589 16.5 8 16.5C12.411 16.5 16 12.911 16 8.5C16 4.089 12.411 0.5 8 0.5ZM8 15.5C4.14 15.5 1 12.36 1 8.5C1 4.64 4.14 1.5 8 1.5C11.86 1.5 15 4.64 15 8.5C15 12.36 11.86 15.5 8 15.5Z" fill="white"/>
<path d="M8 8C7.187 8 6.5 7.542 6.5 7C6.5 6.458 7.187 6 8 6C8.46 6 8.886 6.144 9.168 6.394C9.374 6.577 9.689 6.56 9.874 6.352C10.058 6.146 10.039 5.83 9.832 5.646C9.482 5.335 9.012 5.125 8.5 5.042V4.5C8.5 4.224 8.276 4 8 4C7.724 4 7.5 4.224 7.5 4.5V5.04C6.36 5.226 5.5 6.034 5.5 7C5.5 8.103 6.622 9 8 9C8.813 9 9.5 9.458 9.5 10C9.5 10.542 8.813 11 8 11C7.54 11 7.114 10.856 6.832 10.606C6.626 10.422 6.31 10.44 6.126 10.648C5.942 10.854 5.961 11.17 6.168 11.354C6.518 11.666 6.988 11.875 7.5 11.959V12.5C7.5 12.776 7.724 13 8 13C8.276 13 8.5 12.776 8.5 12.5V11.96C9.64 11.774 10.5 10.966 10.5 10C10.5 8.897 9.378 8 8 8Z" fill="white"/>
</g>
<defs>
<clipPath id="clip0">
<rect width="16" height="16" fill="white" transform="translate(0 0.5)"/>
</clipPath>
</defs>
</svg>
