<svg width="20" height="24" viewBox="0 0 20 24" fill="none" xmlns="http://www.w3.org/2000/svg">
<path d="M17.0781 5.69573V4.21875H18.4844V2.8125H17.0781V0H2.92188V2.8125H1.51562V4.21875H2.92188V5.69573C1.31912 6.02241 0.109375 7.44286 0.109375 9.14062V20.4844C0.109375 21.4284 0.628328 22.3342 1.5707 23.0349C2.38338 23.6392 3.41416 24 4.32812 24H16.375C18.3135 24 19.8906 22.4229 19.8906 20.4844V9.14062C19.8906 7.44286 18.6809 6.02241 17.0781 5.69573ZM4.32812 1.40625H15.6719V2.8125H4.32812V1.40625ZM15.6719 4.21875V5.625H4.32812V4.21875H15.6719ZM16.375 22.5938H4.32812C3.10009 22.5938 1.51562 21.5708 1.51562 20.4844C2.10362 20.9249 2.83417 21.1875 3.625 21.1875H16.375C17.1658 21.1875 17.8964 20.9249 18.4844 20.4825C18.4844 21.6475 17.5381 22.5938 16.375 22.5938ZM16.375 19.7812H3.625C2.46189 19.7812 1.51562 18.835 1.51562 17.6719V9.14062C1.51562 7.97752 2.46189 7.03125 3.625 7.03125H16.375C17.5381 7.03125 18.4844 7.97752 18.4844 9.14062V17.6719C18.4844 18.835 17.5381 19.7812 16.375 19.7812Z" fill="#9CACB7"/>
</svg>
